# xmcd CD database file
#
# Track frame offsets:
#	150
#	15931
#	31906
#	49359
#	70459
#	84903
#	101592
#	121667
#	136815
#
# Disc length: 1904 seconds
#
# Revision: 0
# Processed by: cddbd v1.5.2PL0 Copyright (c) Steve Scherf et al.
# Submitted via: CDex 1.51
#
DISCID=68076e09
DTITLE=The Martini Kings - California Cool
DYEAR=1900
DGENRE=Jazz
TTITLE0=Because Of You
TTITLE1=Summer Samba
TTITLE2=Mission Impossible
TTITLE3=Pink Panther
TTITLE4=Over The Rainbow
TTITLE5=Miserlou
TTITLE6=James Bond Theme
TTITLE7=Lady Is A Tramp
TTITLE8=Black Orpheus
EXTD=
EXTT0=
EXTT1=
EXTT2=
EXTT3=
EXTT4=
EXTT5=
EXTT6=
EXTT7=
EXTT8=
PLAYORDER=
